<svg width="557" height="418" viewBox="0 0 557 418" fill="none" xmlns="http://www.w3.org/2000/svg">
<path d="M522.188 69.625H452.562C452.562 69.625 432.441 69.625 417.75 34.8125C410.265 17.0929 402.154 0 382.938 0H243.688C224.471 0 216.116 16.9885 208.875 34.8125C194.741 69.625 174.062 69.625 174.062 69.625H139.25C139.25 60.3922 135.582 51.5375 129.054 45.0089C122.525 38.4802 113.67 34.8125 104.438 34.8125H69.625C60.3922 34.8125 51.5375 38.4802 45.0088 45.0089C38.4802 51.5375 34.8125 60.3922 34.8125 69.625C25.5797 69.625 16.725 73.2927 10.1963 79.8214C3.66774 86.35 0 95.2047 0 104.438L0 174.062H193.383C217.508 132.601 261.894 104.438 313.312 104.438C364.731 104.438 409.116 132.601 433.242 174.062H557V104.438C557 95.2047 553.332 86.35 546.804 79.8214C540.275 73.2927 531.42 69.625 522.188 69.625ZM121.844 139.25H52.2188C47.6023 139.25 43.175 137.416 39.9107 134.152C36.6464 130.888 34.8125 126.46 34.8125 121.844C34.8125 117.227 36.6464 112.8 39.9107 109.536C43.175 106.271 47.6023 104.438 52.2188 104.438H121.844C126.46 104.438 130.888 106.271 134.152 109.536C137.416 112.8 139.25 117.227 139.25 121.844C139.25 126.46 137.416 130.888 134.152 134.152C130.888 137.416 126.46 139.25 121.844 139.25ZM208.875 243.688C208.875 257.402 211.576 270.983 216.825 283.654C222.073 296.325 229.766 307.838 239.464 317.536C249.162 327.234 260.675 334.927 273.346 340.175C286.017 345.424 299.598 348.125 313.312 348.125C327.027 348.125 340.608 345.424 353.279 340.175C365.95 334.927 377.463 327.234 387.161 317.536C396.859 307.838 404.552 296.325 409.8 283.654C415.049 270.983 417.75 257.402 417.75 243.688C417.75 229.973 415.049 216.392 409.8 203.721C404.552 191.05 396.859 179.537 387.161 169.839C377.463 160.141 365.95 152.448 353.279 147.2C340.608 141.951 327.027 139.25 313.312 139.25C299.598 139.25 286.017 141.951 273.346 147.2C260.675 152.448 249.162 160.141 239.464 169.839C229.766 179.537 222.073 191.05 216.825 203.721C211.576 216.392 208.875 229.973 208.875 243.688V243.688ZM452.562 243.688C452.562 280.619 437.892 316.038 411.777 342.152C385.663 368.267 350.244 382.937 313.312 382.938C276.381 382.937 240.962 368.267 214.848 342.152C188.733 316.038 174.063 280.619 174.062 243.688C174.062 231.608 176.082 220.05 178.971 208.875H0V382.938C0 392.17 3.66774 401.025 10.1963 407.554C16.725 414.082 25.5797 417.75 34.8125 417.75H522.188C531.42 417.75 540.275 414.082 546.804 407.554C553.332 401.025 557 392.17 557 382.938V208.875H447.654C450.543 220.05 452.562 231.608 452.562 243.688Z" fill="#442505"/>
</svg>
