<svg width="557" height="557" viewBox="0 0 557 557" fill="none" xmlns="http://www.w3.org/2000/svg">
<circle cx="278.5" cy="278.5" r="278.5" fill="#E8733A"/>
<path d="M318.126 282.289C318.126 271.788 317.222 261.235 315.444 250.922C315.441 250.897 315.436 250.872 315.432 250.848C315.424 250.808 315.419 250.766 315.414 250.727C313.424 239.264 310.331 227.959 306.213 217.128C300.785 202.832 293.551 189.263 284.692 176.705C288.157 173.388 291.736 169.899 295.543 166.12C298.009 163.674 298.028 159.686 295.583 157.218C293.142 154.749 289.157 154.729 286.692 157.178C281.475 162.352 276.687 166.989 272.047 171.361C228.786 212.28 181.65 247.77 131.946 276.853C130.017 277.983 128.83 280.05 128.83 282.289C128.83 284.528 130.017 286.597 131.948 287.727C181.65 316.788 228.786 352.278 272.057 393.227C276.687 397.587 281.475 402.223 286.692 407.4C287.918 408.618 289.519 409.224 291.117 409.224C292.736 409.224 294.354 408.603 295.583 407.36C298.028 404.891 298.009 400.904 295.543 398.457C291.733 394.679 288.155 391.187 284.692 387.873C293.551 375.315 300.787 361.746 306.213 347.452C310.331 336.621 313.424 325.313 315.414 313.851C315.422 313.811 315.427 313.769 315.432 313.73C315.436 313.705 315.439 313.681 315.444 313.656C317.222 303.342 318.126 292.79 318.126 282.289ZM244.79 282.289C244.79 253.057 267.375 228.667 295.982 225.93C298.107 232.011 299.925 238.219 301.346 244.522C280.556 244.529 263.644 261.47 263.644 282.289C263.644 303.108 280.556 320.048 301.346 320.056C299.922 326.359 298.105 332.566 295.982 338.648C267.375 335.911 244.79 311.52 244.79 282.289ZM301.361 307.463C287.497 307.463 276.219 296.171 276.219 282.289C276.219 268.407 287.497 257.114 301.361 257.114C302.144 257.114 302.915 257.188 303.686 257.257C304.898 265.524 305.55 273.919 305.55 282.289C305.55 290.659 304.9 299.051 303.686 307.32C302.915 307.389 302.146 307.463 301.361 307.463ZM275.402 185.384C281.601 194.36 286.898 203.885 291.253 213.828C257.979 218.775 232.214 247.772 232.214 282.289C232.214 316.805 257.979 345.802 291.253 350.752C286.901 360.693 281.603 370.217 275.404 379.194C235.569 342.16 192.613 309.579 147.435 282.286C192.62 254.976 235.573 222.396 275.402 185.384ZM422.82 278.516L410.39 266.069C409.39 265.068 408.035 264.505 406.622 264.505C401.873 264.505 399.494 270.256 402.853 273.618L405.228 275.993H345.139C341.667 275.993 338.852 278.812 338.852 282.289C338.852 285.766 341.667 288.585 345.139 288.585H405.228L402.853 290.96C399.494 294.321 401.873 300.072 406.622 300.072C408.035 300.072 409.39 299.51 410.39 298.509L422.82 286.062C424.901 283.978 424.901 280.6 422.82 278.516ZM345.132 246.626C345.504 246.626 345.878 246.594 346.255 246.525C373.653 241.58 391.039 226.201 398.112 200.834L400.371 204.092C403.08 207.998 409.153 206.676 409.996 201.996C410.247 200.602 409.934 199.167 409.129 198.005L399.1 183.549C397.42 181.127 394.1 180.528 391.681 182.21L377.244 192.252C376.084 193.058 375.291 194.296 375.039 195.69C374.197 200.37 379.428 203.732 383.327 201.019L385.403 199.574C379.29 218.881 365.683 230.228 344.029 234.137C340.61 234.751 338.339 238.029 338.955 241.449C339.499 244.49 342.147 246.626 345.132 246.626ZM400.371 360.261L398.112 363.519C391.039 338.152 373.65 322.773 346.255 317.829C342.849 317.2 339.568 319.483 338.953 322.909C338.337 326.33 340.605 329.607 344.026 330.221C365.68 334.13 379.288 345.477 385.401 364.784L383.325 363.339C379.426 360.624 374.195 363.988 375.037 368.669C375.288 370.062 376.081 371.297 377.241 372.106L391.679 382.149C394.098 383.83 397.418 383.231 399.097 380.809L409.126 366.353C409.932 365.191 410.245 363.753 409.993 362.363C409.151 357.677 403.077 356.355 400.371 360.261Z" fill="white"/>
</svg>
