<svg width="557" height="557" viewBox="0 0 557 557" fill="none" xmlns="http://www.w3.org/2000/svg">
<path d="M39.7874 0C17.9174 0 0 17.9171 0 39.7871V318.297C0 340.167 17.9174 358.084 39.7874 358.084H208.785C208.353 409.305 200.217 451.913 191.068 487.392H139.197C128.348 487.392 119.303 496.437 119.303 507.286V537.106C119.303 547.955 128.348 557 139.197 557H417.706C428.555 557 437.6 547.955 437.6 537.106V507.286C437.6 496.437 428.556 487.392 417.706 487.392H365.913C356.771 451.913 348.697 409.306 348.273 358.084H517.194C539.064 358.084 557 340.167 557 318.297V39.7871C557 17.9171 539.064 0 517.194 0H39.7874ZM39.7874 19.8935H517.194C528.387 19.8935 537.107 28.594 537.107 39.7871V278.49H19.8937V39.7871C19.8937 28.594 28.5941 19.8935 39.7874 19.8935V19.8935ZM258.558 39.7677C253.088 39.7895 248.661 44.2245 248.65 49.695V70.8319C247.139 71.4048 245.62 72.0187 244.143 72.6773L229.262 57.7572C225.375 53.8613 219.064 53.8613 215.177 57.7572L187.046 85.8879C183.137 89.7768 183.137 96.1032 187.046 99.9921L201.927 114.893C201.262 116.362 200.683 117.876 200.1 119.381H178.944C173.481 119.402 169.058 123.826 169.036 129.288V169.076C169.058 174.539 173.481 178.962 178.944 178.984H200.1C200.683 180.488 201.262 182.002 201.927 183.471L187.046 198.372C183.137 202.261 183.137 208.587 187.046 212.476L215.177 240.607C219.064 244.503 225.375 244.503 229.262 240.607L244.143 225.687C245.62 226.345 247.139 226.959 248.65 227.532V248.669C248.661 254.14 253.088 258.575 258.558 258.596H298.365C303.865 258.617 308.339 254.17 308.35 248.669V227.61C309.869 227.025 311.339 226.358 312.818 225.687L327.739 240.607C331.625 244.503 337.936 244.503 341.823 240.607L369.935 212.476C373.844 208.587 373.844 202.261 369.935 198.372L355.034 183.549C355.699 182.055 356.301 180.513 356.88 178.983H377.958C383.452 179.004 387.922 174.569 387.944 169.076V129.288C387.922 123.795 383.452 119.36 377.958 119.38H356.88C356.301 117.851 355.699 116.309 355.034 114.815L369.935 99.9923C373.844 96.1034 373.844 89.777 369.935 85.8881L341.823 57.7574C337.936 53.8615 331.625 53.8615 327.739 57.7574L312.818 72.6775C311.337 72.0065 309.867 71.3388 308.35 70.7543V49.6951C308.339 44.1942 303.865 39.7468 298.365 39.7677L258.558 39.7677ZM268.544 59.6806H288.437V77.3012C288.458 81.7527 291.433 85.6486 295.722 86.84C300.815 88.273 305.662 90.3918 310.254 93.0179C314.15 95.24 319.052 94.5795 322.221 91.4055L334.771 78.8361L348.798 92.9403L336.326 105.413C333.179 108.572 332.521 113.439 334.713 117.322C337.307 121.929 339.337 126.832 340.735 131.931C341.912 136.271 345.855 139.282 350.352 139.274H368.05V159.09H350.352C345.855 159.083 341.912 162.094 340.735 166.434C339.337 171.533 337.306 176.436 334.713 181.043C332.521 184.926 333.179 189.792 336.326 192.952L348.798 205.424L334.771 219.529L322.221 206.959C319.052 203.785 314.15 203.125 310.254 205.347C305.662 207.973 300.815 210.091 295.722 211.525C291.433 212.716 288.458 216.612 288.437 221.063V238.684H268.544V220.986C268.551 216.489 265.54 212.546 261.2 211.369C256.107 209.97 251.271 207.939 246.669 205.347C242.772 203.125 237.871 203.785 234.701 206.959L222.209 219.529L208.183 205.424L220.675 192.874C223.848 189.705 224.509 184.803 222.288 180.907C219.664 176.32 217.622 171.442 216.187 166.356C214.98 162.047 211.046 159.074 206.571 159.09H188.95V139.274H206.571C211.046 139.291 214.981 136.318 216.187 132.009C217.623 126.922 219.661 122.044 222.288 117.458C224.509 113.561 223.848 108.659 220.675 105.49L208.183 92.9403L222.209 78.8361L234.701 91.4055C237.87 94.5795 242.772 95.2398 246.669 93.0179C251.271 90.4255 256.107 88.3951 261.2 86.9954C265.54 85.818 268.551 81.8758 268.544 77.3789V59.6806ZM278.51 109.376C256.654 109.376 238.723 127.326 238.723 149.182C238.723 171.038 256.654 188.989 278.51 188.989C300.366 188.989 318.317 171.038 318.317 149.182C318.317 127.326 300.366 109.376 278.51 109.376ZM278.51 129.289C289.615 129.289 298.423 138.077 298.423 149.182C298.423 160.287 289.615 169.076 278.51 169.076C267.405 169.076 258.616 160.287 258.616 149.182C258.616 138.077 267.405 129.289 278.51 129.289ZM19.8937 298.403H537.107V318.297C537.107 329.49 528.387 338.19 517.194 338.19H39.7874C28.5941 338.19 19.8937 329.49 19.8937 318.297V298.403ZM228.698 358.084H328.36C328.766 409.098 336.533 451.81 345.437 487.392H211.564C220.478 451.811 228.286 409.097 228.698 358.084ZM139.197 507.286H417.706V537.106H139.197V507.286Z" fill="#E8733A"/>
</svg>
