<svg width="557" height="557" viewBox="0 0 557 557" fill="none" xmlns="http://www.w3.org/2000/svg">
<circle cx="278.5" cy="278.5" r="278.5" fill="#E8733A"/>
<path d="M230.985 139.288C222.345 139.298 214.063 142.735 207.954 148.844C201.845 154.952 198.409 163.235 198.398 171.874C198.398 173.603 197.712 175.26 196.489 176.483C195.267 177.705 193.61 178.392 191.881 178.392C190.153 178.392 188.495 177.705 187.273 176.483C186.05 175.26 185.364 173.603 185.364 171.874C185.377 159.779 190.188 148.183 198.741 139.63C207.293 131.078 218.889 126.267 230.985 126.253C232.713 126.253 234.371 126.94 235.593 128.162C236.815 129.384 237.502 131.042 237.502 132.771C237.502 134.499 236.815 136.157 235.593 137.379C234.371 138.601 232.713 139.288 230.985 139.288ZM426.503 315.254V393.462C426.503 395.19 425.816 396.848 424.594 398.07C423.372 399.292 421.714 399.979 419.986 399.979C418.257 399.979 416.6 399.292 415.377 398.07C414.155 396.848 413.469 395.19 413.469 393.462V373.91H354.342V380.427C354.336 385.611 352.274 390.581 348.609 394.246C344.944 397.912 339.974 399.973 334.79 399.979H217.476C212.292 399.973 207.322 397.912 203.657 394.246C199.991 390.581 197.93 385.611 197.924 380.427V373.91H139.743V393.462C139.743 395.19 139.056 396.848 137.834 398.07C136.612 399.292 134.954 399.979 133.226 399.979C131.497 399.979 129.839 399.292 128.617 398.07C127.395 396.848 126.708 395.19 126.708 393.462V315.254C126.708 313.526 127.395 311.868 128.617 310.646C129.839 309.424 131.497 308.737 133.226 308.737C134.954 308.737 136.612 309.424 137.834 310.646C139.056 311.868 139.743 313.526 139.743 315.254V360.875H197.924V354.358C197.93 349.174 199.991 344.205 203.657 340.539C207.322 336.874 212.292 334.812 217.476 334.806H217.95V321.772C212.766 321.766 207.797 319.704 204.131 316.039C200.466 312.373 198.404 307.404 198.398 302.22V295.703H178.847C166.427 295.707 154.413 291.276 144.971 283.207C135.528 275.139 129.277 263.965 127.344 251.696C125.41 239.428 127.921 226.872 134.424 216.291C140.927 205.709 150.995 197.798 162.814 193.982C160.476 186.846 159.288 179.383 159.295 171.874C159.286 156.708 164.091 141.93 173.016 129.668C181.942 117.406 194.528 108.292 208.964 103.639C223.399 98.9863 238.938 99.0341 253.345 103.776C267.751 108.517 280.281 117.708 289.131 130.024C298.877 123.351 310.411 119.776 322.223 119.77C334.035 119.763 345.573 123.325 355.326 129.988C365.079 136.65 372.592 146.104 376.881 157.109C381.17 168.115 382.034 180.159 379.361 191.665C392.694 192.949 405.022 199.315 413.788 209.443C422.554 219.571 427.085 232.685 426.443 246.065C425.8 259.444 420.033 272.063 410.337 281.305C400.641 290.547 387.76 295.702 374.365 295.703H354.813V302.22C354.807 307.404 352.746 312.373 349.08 316.039C345.415 319.704 340.445 321.766 335.261 321.772V334.854C340.357 334.975 345.203 337.083 348.768 340.726C352.332 344.37 354.332 349.261 354.342 354.358V360.875H413.469V315.254C413.469 313.526 414.155 311.868 415.377 310.646C416.6 309.424 418.257 308.737 419.986 308.737C421.714 308.737 423.372 309.424 424.594 310.646C425.816 311.868 426.503 313.526 426.503 315.254ZM217.95 256.599V224.012C217.956 218.829 220.018 213.859 223.683 210.194C227.349 206.528 232.318 204.466 237.502 204.461H250.537V197.943C250.54 194.487 251.914 191.174 254.358 188.73C256.802 186.287 260.115 184.912 263.571 184.909H289.64C293.096 184.913 296.409 186.287 298.853 188.731C301.296 191.175 302.671 194.488 302.675 197.943V204.461H315.709C320.893 204.466 325.863 206.528 329.528 210.194C333.194 213.859 335.256 218.829 335.261 224.012V256.599C340.445 256.605 345.415 258.666 349.08 262.332C352.746 265.997 354.807 270.967 354.813 276.151V282.668H374.365C384.736 282.668 394.682 278.548 402.015 271.215C409.349 263.881 413.469 253.935 413.469 243.564C413.469 233.193 409.349 223.247 402.015 215.914C394.682 208.58 384.736 204.461 374.365 204.461C373.232 204.461 372.125 204.543 371.017 204.636C369.905 204.73 368.787 204.537 367.771 204.075C366.754 203.614 365.874 202.899 365.213 201.999C364.553 201.099 364.134 200.044 363.998 198.937C363.862 197.829 364.013 196.704 364.436 195.671C368.362 186.127 368.932 175.534 366.052 165.624C363.173 155.714 357.015 147.075 348.586 141.121C340.157 135.166 329.957 132.249 319.655 132.847C309.352 133.445 299.558 137.522 291.874 144.411C291.151 145.059 290.291 145.536 289.359 145.809C288.427 146.081 287.446 146.142 286.487 145.987C285.528 145.832 284.616 145.464 283.818 144.912C283.02 144.359 282.355 143.634 281.872 142.792C275.463 131.558 265.519 122.759 253.588 117.765C241.658 112.771 228.411 111.863 215.91 115.182C203.409 118.5 192.357 125.86 184.475 136.114C176.592 146.368 172.322 158.941 172.329 171.874C172.328 180.161 174.097 188.352 177.516 195.9C177.928 196.813 178.124 197.808 178.089 198.808C178.053 199.808 177.788 200.787 177.314 201.668C176.839 202.549 176.168 203.309 175.352 203.889C174.536 204.469 173.598 204.853 172.609 205.011C162.907 206.573 154.15 211.733 148.082 219.463C142.014 227.192 139.081 236.925 139.868 246.72C140.655 256.515 145.103 265.655 152.327 272.317C159.551 278.979 169.02 282.675 178.847 282.668H198.398V276.151C198.404 270.967 200.466 265.997 204.131 262.332C207.797 258.666 212.766 256.605 217.95 256.599ZM250.537 224.012V217.495H237.502C235.774 217.497 234.118 218.185 232.896 219.406C231.674 220.628 230.987 222.285 230.985 224.012V256.599H322.227V224.012C322.225 222.285 321.538 220.628 320.316 219.406C319.094 218.184 317.437 217.497 315.709 217.495H302.675V224.012C302.671 227.468 301.296 230.781 298.853 233.225C296.409 235.668 293.096 237.043 289.64 237.047H263.571C260.115 237.044 256.802 235.669 254.358 233.226C251.914 230.782 250.54 227.468 250.537 224.012ZM289.64 210.978L289.644 210.962L289.64 197.943H263.571V224.012H289.647L289.644 210.994L289.64 210.978ZM217.95 308.737H335.261C336.989 308.736 338.646 308.049 339.868 306.827C341.09 305.605 341.777 303.948 341.778 302.22V276.151C341.777 274.423 341.09 272.766 339.868 271.544C338.646 270.322 336.989 269.635 335.261 269.633H217.95C216.222 269.635 214.565 270.322 213.344 271.544C212.122 272.766 211.435 274.423 211.433 276.151V302.22C211.435 303.948 212.122 305.605 213.344 306.826C214.565 308.048 216.222 308.736 217.95 308.737V308.737ZM230.985 321.772V334.806H322.227V321.772H230.985ZM341.307 354.358C341.306 352.63 340.619 350.973 339.397 349.751C338.175 348.529 336.518 347.842 334.79 347.841H217.476C215.748 347.843 214.091 348.53 212.869 349.752C211.647 350.973 210.96 352.63 210.958 354.358V365.044C211.272 365.787 211.433 366.586 211.433 367.393C211.433 368.199 211.272 368.998 210.958 369.741V380.427C210.96 382.155 211.647 383.812 212.869 385.034C214.091 386.256 215.748 386.943 217.476 386.944H334.79C336.518 386.943 338.175 386.256 339.397 385.034C340.619 383.812 341.306 382.155 341.307 380.427V354.358ZM237.502 360.875H230.985C229.256 360.875 227.599 361.562 226.376 362.784C225.154 364.006 224.467 365.664 224.467 367.393C224.467 369.121 225.154 370.779 226.376 372.001C227.599 373.223 229.256 373.91 230.985 373.91H237.502C239.231 373.91 240.888 373.223 242.11 372.001C243.333 370.779 244.019 369.121 244.019 367.393C244.019 365.664 243.333 364.006 242.11 362.784C240.888 361.562 239.231 360.875 237.502 360.875ZM322.227 360.875H289.64C287.912 360.875 286.254 361.562 285.032 362.784C283.81 364.006 283.123 365.664 283.123 367.393C283.123 369.121 283.81 370.779 285.032 372.001C286.254 373.223 287.912 373.91 289.64 373.91H322.227C323.955 373.91 325.613 373.223 326.835 372.001C328.057 370.779 328.744 369.121 328.744 367.393C328.744 365.664 328.057 364.006 326.835 362.784C325.613 361.562 323.955 360.875 322.227 360.875ZM230.985 295.703H237.502C239.231 295.703 240.888 295.016 242.11 293.794C243.333 292.571 244.019 290.914 244.019 289.185C244.019 287.457 243.333 285.799 242.11 284.577C240.888 283.355 239.231 282.668 237.502 282.668H230.985C229.256 282.668 227.599 283.355 226.376 284.577C225.154 285.799 224.467 287.457 224.467 289.185C224.467 290.914 225.154 292.571 226.376 293.794C227.599 295.016 229.256 295.703 230.985 295.703ZM289.64 295.703H322.227C323.955 295.703 325.613 295.016 326.835 293.794C328.057 292.571 328.744 290.914 328.744 289.185C328.744 287.457 328.057 285.799 326.835 284.577C325.613 283.355 323.955 282.668 322.227 282.668H289.64C287.912 282.668 286.254 283.355 285.032 284.577C283.81 285.799 283.123 287.457 283.123 289.185C283.123 290.914 283.81 292.571 285.032 293.794C286.254 295.016 287.912 295.703 289.64 295.703Z" fill="white"/>
</svg>
