<svg width="418" height="418" viewBox="0 0 418 418" fill="none" xmlns="http://www.w3.org/2000/svg">
<path fill-rule="evenodd" clip-rule="evenodd" d="M417.75 68.2445C417.75 50.1479 411.903 32.7808 401.473 19.9791C391.044 7.20094 376.895 0 362.152 0C288.725 0 129.025 0 55.5979 0C40.8549 0 26.7061 7.20094 16.2767 19.9791C5.84733 32.7808 0 50.1479 0 68.2445C0 140.348 0 277.402 0 349.506C0 367.602 5.84733 384.969 16.2767 397.771C26.7061 410.549 40.8549 417.75 55.5979 417.75C129.025 417.75 288.725 417.75 362.152 417.75C376.895 417.75 391.044 410.549 401.473 397.771C411.903 384.969 417.75 367.602 417.75 349.506V68.2445ZM383.241 68.2445V349.506C383.241 356.377 381.017 362.966 377.068 367.814C373.118 372.662 367.75 375.391 362.152 375.391C288.725 375.391 129.025 375.391 55.5979 375.391C49.9998 375.391 44.6317 372.662 40.6824 367.814C36.733 362.966 34.509 356.377 34.509 349.506C34.509 277.402 34.509 140.348 34.509 68.2445C34.509 61.373 36.733 54.7838 40.6824 49.9361C44.6317 45.0884 49.9998 42.3587 55.5979 42.3587C129.025 42.3587 288.725 42.3587 362.152 42.3587C367.75 42.3587 373.118 45.0884 377.068 49.9361C381.017 54.7838 383.241 61.373 383.241 68.2445ZM91.9279 123.334V326.538C91.9279 338.233 84.2019 347.717 74.6736 347.717C65.1453 347.717 57.4192 338.233 57.4192 326.538V91.2122C57.4192 84.0818 60.3333 77.4457 65.1837 73.5393C70.015 69.6093 76.1305 68.9503 81.4794 71.7507L208.875 138.772L336.271 71.7507C341.619 68.9503 347.735 69.6093 352.566 73.5393C357.417 77.4457 360.331 84.0818 360.331 91.2122V326.538C360.331 338.233 352.605 347.717 343.076 347.717C333.548 347.717 325.822 338.233 325.822 326.538V123.334L215.681 181.271C211.329 183.554 206.421 183.554 202.069 181.271L91.9279 123.334Z" fill="white"/>
</svg>
