<svg width="418" height="418" viewBox="0 0 418 418" fill="none" xmlns="http://www.w3.org/2000/svg">
<path d="M386.901 0H30.8674C13.8184 0 0 13.3959 0 29.9295V387.807C0 404.34 13.823 417.75 30.8674 417.75H386.901C403.95 417.75 417.75 404.336 417.75 387.807V29.9295C417.75 13.4005 403.95 0 386.901 0V0ZM126.649 349.685H63.5312V161.075H126.649V349.685V349.685ZM95.0949 135.309H94.6725C73.5063 135.309 59.7853 120.832 59.7853 102.711C59.7853 84.223 73.9101 70.1402 95.4941 70.1402C117.083 70.1402 130.363 84.2184 130.78 102.711C130.78 120.837 117.087 135.309 95.0949 135.309V135.309ZM354.177 349.685H291.078V248.775C291.078 223.413 281.933 206.113 259.115 206.113C241.657 206.113 231.297 217.787 226.748 229.052C225.058 233.081 224.645 238.707 224.645 244.333V349.68H161.555C161.555 349.68 162.381 178.76 161.555 161.07H224.65V187.811C233.028 174.963 247.993 156.633 281.506 156.633C323.036 156.633 354.177 183.573 354.177 241.534V349.685V349.685ZM224.241 188.41C224.353 188.234 224.501 188.02 224.65 187.816V188.41H224.241Z" fill="white"/>
</svg>
