<svg width="557" height="595" viewBox="0 0 557 595" fill="none" xmlns="http://www.w3.org/2000/svg">
<path d="M524.476 175.132C521.478 171.184 526.301 166.306 530.993 168.629L545.202 175.248C549.243 177.106 553.936 173.622 552.502 169.674C533.47 116.719 494.104 77.0022 433.75 50.7568C429.709 49.0149 429.84 43.789 434.011 42.2793C440.789 39.9567 448.61 38.447 456.823 37.518C461.906 36.9373 463.08 30.5502 458.387 28.6921C438.313 20.7953 413.545 18.9372 384.607 22.305C380.306 22.7695 376.916 18.3565 379.784 15.1049C382 12.55 384.346 10.1113 386.823 7.67258C390.082 4.6532 387.345 -0.224258 382.652 0.00800171C342.894 2.56286 305.744 9.53067 282.541 37.7503C280.586 40.189 276.414 40.189 274.459 37.7503C251.126 9.64679 214.106 2.79512 174.218 0.124132C169.525 -0.224258 166.918 4.76933 170.177 7.78871C172.653 10.1113 175 12.6662 177.216 15.221C179.953 18.3565 176.825 23.0017 172.393 22.4211C143.454 19.0533 118.687 20.9114 98.6131 28.8082C93.9204 30.6663 95.0935 36.9373 100.177 37.6341C108.52 38.5632 116.211 40.0729 122.989 42.3955C127.16 43.9051 127.291 49.0149 123.25 50.7568C62.8964 77.0022 23.5298 116.719 4.49833 169.674C3.06445 173.622 7.6268 177.106 11.7981 175.248L26.1369 168.513C30.8296 166.306 35.6527 171.067 32.6545 175.016C7.6268 208.113 -1.4979 248.642 0.196686 294.398C0.327039 298.81 6.71433 300.552 9.58209 296.836L16.8818 287.43C20.0103 283.365 27.1797 286.152 26.1369 290.914C19.6193 318.785 20.9228 346.075 30.96 372.785C32.6545 377.314 40.0846 376.734 40.8668 372.089C41.6489 368.14 42.5614 364.308 43.7345 360.592C45.1684 355.598 53.3806 356.527 53.7717 361.637C55.5966 393.573 65.7642 424.928 82.71 455.586C85.0564 459.767 92.0954 458.489 92.3561 453.844C92.6168 450.244 93.0079 446.76 93.5293 443.392C94.3114 438.399 102.263 438.283 103.566 443.16C109.302 463.483 119.991 481.135 135.373 496.464C138.631 499.599 144.367 497.509 144.367 493.444C144.367 493.212 144.237 492.98 144.237 492.864C143.585 487.986 151.145 485.78 153.752 490.077C161.313 502.386 170.568 513.419 181.257 523.057C184.907 526.309 190.903 523.406 189.99 518.877C187.905 509.586 188.426 500.761 193.64 492.631C201.201 518.412 211.368 540.709 226.62 556.271C229.878 559.522 235.875 557.2 235.484 552.787C235.353 551.045 235.353 549.303 235.353 547.561C235.614 542.335 243.696 541.29 245.39 546.283C251.517 564.051 261.163 579.729 274.459 593.432C276.545 595.523 280.195 595.523 282.28 593.432C295.707 579.729 305.353 563.935 311.479 546.167C313.174 541.174 321.256 542.219 321.516 547.445C321.647 549.187 321.647 550.929 321.516 552.671C321.256 557.084 327.122 559.522 330.38 556.155C345.632 540.593 355.669 518.296 363.229 492.515C368.574 500.644 369.095 509.586 366.879 518.877C365.836 523.29 371.963 526.309 375.613 523.057C386.432 513.303 395.687 502.386 403.248 489.844C405.855 485.431 413.415 487.754 412.763 492.631V492.748C412.242 497.161 418.369 499.715 421.627 496.348C436.879 481.135 447.568 463.367 453.433 443.044C454.737 438.166 462.689 438.399 463.471 443.392C463.992 446.644 464.383 450.128 464.644 453.728C464.905 458.373 472.074 459.651 474.42 455.47C491.236 424.812 501.534 393.573 503.228 361.521C503.489 356.411 511.701 355.482 513.265 360.476C514.439 364.192 515.351 368.024 516.133 371.972C517.046 376.734 524.476 377.198 526.17 372.669C536.077 345.959 537.25 318.669 530.863 290.914C529.69 286.036 536.99 283.365 540.118 287.43L547.418 296.836C550.155 300.436 556.673 298.694 556.803 294.398C558.498 248.642 549.373 208.113 524.476 175.132ZM410.547 308.449C419.933 326.101 423.583 344.682 421.367 363.611C417.195 398.334 386.954 428.412 345.632 423.302C330.511 442.812 305.613 454.425 278.5 454.425C251.256 454.425 226.489 442.696 211.368 423.186C171.48 428.992 139.805 398.798 135.633 363.495C133.417 344.566 137.067 326.101 146.453 308.333C110.345 277.21 77.2352 250.152 87.142 199.055C100.438 130.887 148.017 93.2604 221.145 93.2604C238.742 93.2604 258.035 95.4669 278.5 99.8798C298.965 95.4669 318.127 93.2604 335.855 93.2604C406.898 93.2604 454.085 129.028 468.685 193.829C481.85 252.242 441.05 281.159 410.547 308.449Z" fill="#E8733A"/>
<path d="M327.882 314.705C331.776 307.469 323.729 299.62 316.072 303.054C292.452 313.847 264.42 313.847 240.929 303.054C233.272 299.62 225.226 307.469 229.119 314.705C237.425 330.404 249.754 344.876 258.45 351.622C269.741 361.311 287.391 361.311 298.682 351.622C307.117 344.999 319.576 330.404 327.882 314.705Z" fill="#E8733A"/>
<path d="M217.495 413.82C244.291 453.699 312.301 454.163 339.505 413.704C331.752 412.081 322.638 409.299 307.812 403.039C268.502 386.113 247.555 407.56 217.495 413.82Z" fill="#E8733A"/>
<path d="M278.652 111.013C175.107 87.3001 116.587 124.914 102.184 199.791C91.1546 257.497 148.766 287.168 164.467 305.507C154.346 321.394 148.118 340.201 150.583 361.695C154.995 401.995 198.333 415.779 228.437 399.309C245.694 390.08 254.258 383.656 271.516 382.02V370.573C263.341 369.404 255.556 366.25 248.938 360.877C244.527 358.19 227.399 341.252 216.499 321.978C206.508 304.339 227.139 285.065 247.251 293.593C266.974 302.237 290.33 302.12 310.053 293.593C330.036 284.948 350.797 304.223 340.676 321.978C331.463 338.449 317.839 353.751 307.848 361.111C301.749 366.134 293.964 369.404 285.789 370.573V381.903C304.214 383.772 311.351 390.431 330.425 399.309C360.399 414.494 402.44 400.36 406.852 361.578C409.317 340.084 403.089 321.277 392.968 305.391C407.76 287.518 468.226 257.964 454.083 194.768C438.512 125.615 382.587 87.0665 278.652 111.013ZM222.857 242.662C222.338 245.465 218.705 246.634 216.369 244.648C210.271 239.625 203.913 236.588 197.165 235.653C179.778 232.733 169.917 223.738 167.451 208.669C166.803 205.165 163.559 202.011 159.147 198.974C156.162 196.988 157.59 192.666 161.353 192.549C167.322 192.432 172.901 192.549 178.351 193.016C189.769 194.068 200.409 196.754 210.79 202.361C216.24 205.982 219.484 210.772 221.43 216.145C224.804 225.607 224.025 236.004 222.857 242.662ZM397.898 199.207C393.487 202.128 390.113 205.282 389.594 208.903C387.258 223.972 377.397 232.966 359.88 235.887C353.132 236.821 346.645 239.858 340.676 244.881C338.34 246.867 334.577 245.699 334.188 242.896C333.02 236.237 332.242 225.841 335.615 216.612C337.562 211.239 340.806 206.333 346.255 202.829C356.636 197.221 367.276 194.535 378.694 193.483C384.144 193.016 389.854 192.899 395.693 193.016C399.455 192.899 400.883 197.221 397.898 199.207Z" fill="#E8733A"/>
</svg>
