<svg width="521" height="693" viewBox="0 0 521 693" fill="none" xmlns="http://www.w3.org/2000/svg">
<path d="M346.425 365.69L287.891 399.482C284.065 401.691 282.754 406.584 284.963 410.41L444.103 686.071C446.312 689.897 451.204 691.209 455.031 689L513.565 655.208C517.391 652.999 518.702 648.106 516.493 644.28L357.353 368.619C355.144 364.792 350.252 363.481 346.425 365.69Z" fill="#E8733A"/>
<path d="M182.222 412.395C282.611 439.293 385.795 379.717 412.693 279.328C439.59 178.939 380.014 75.7546 279.625 48.8575C179.236 21.9603 76.0517 81.5364 49.1545 181.925C22.2573 282.314 81.8334 385.498 182.222 412.395Z" stroke="#E8733A" stroke-width="5" stroke-linecap="square" stroke-linejoin="round"/>
</svg>
