<svg width="176" height="234" viewBox="0 0 176 234" fill="none" xmlns="http://www.w3.org/2000/svg">
<path d="M112.81 126.035L102.299 132.103C98.4725 134.312 97.1614 139.205 99.3704 143.031L147.633 226.63C149.842 230.457 154.734 231.768 158.561 229.559L169.072 223.491C172.898 221.282 174.209 216.389 172 212.563L123.738 128.963C121.529 125.137 116.636 123.826 112.81 126.035Z" fill="#E8733A"/>
<path d="M62.133 139.103C95.9253 148.157 130.659 128.103 139.713 94.3104C148.767 60.518 128.713 25.7845 94.9203 16.7306C61.128 7.67656 26.3945 27.7308 17.3405 61.5231C8.2865 95.3154 28.3407 130.049 62.133 139.103Z" stroke="#E8733A" stroke-width="15" stroke-linecap="square" stroke-linejoin="round"/>
</svg>
