<svg width="557" height="557" viewBox="0 0 557 557" fill="none" xmlns="http://www.w3.org/2000/svg">
<circle cx="278.5" cy="278.5" r="278.5" fill="#E8733A"/>
<path d="M192.587 358.299C187.505 358.299 183.38 354.174 183.38 349.091V318.399C183.38 280.82 208.191 257.016 246.593 257.016H313.992C328.466 257.016 330.553 249.551 330.676 242.247V210.978C330.676 205.895 334.801 201.77 339.884 201.77C344.966 201.77 349.091 205.895 349.091 210.978V242.419C348.723 263.154 335.599 275.431 313.992 275.431H246.593C218.54 275.431 201.795 291.219 201.795 317.663V349.091C201.795 354.174 197.67 358.299 192.587 358.299Z" fill="white"/>
<path d="M339.884 251.626C334.801 251.626 330.676 247.501 330.676 242.419V178.199C330.676 164.191 322.537 154.468 308.897 152.16C287.573 148.698 264.149 148.723 244.702 152.283C233.199 154.247 225.993 157.157 222.567 161.184C219.793 164.461 218.614 169.544 218.614 178.199V207.909H269.305C274.388 207.909 278.513 212.034 278.513 217.116C278.513 222.199 274.388 226.324 269.305 226.324H209.407C204.324 226.324 200.199 222.199 200.199 217.116V178.199C200.199 169.298 201.145 157.992 208.523 149.287C214.931 141.725 225.403 136.9 241.486 134.15C262.847 130.271 288.543 130.197 311.918 134.003C334.531 137.833 349.104 155.18 349.104 178.211V242.419C349.091 247.501 344.979 251.626 339.884 251.626Z" fill="white"/>
<path d="M192.587 358.299H177.855C149.312 358.299 140.374 334.875 136.127 317.245C129.559 289.549 129.559 271.871 136.127 244.432C141.983 220.198 158.127 207.909 184.116 207.909H209.407C214.489 207.909 218.614 212.034 218.614 217.116C218.614 222.199 214.489 226.324 209.407 226.324H184.116C166.364 226.324 157.93 232.61 154.026 248.741C148.097 273.528 148.097 287.929 154.038 312.961C159.416 335.304 167.457 339.884 177.855 339.884H183.38V318.399C183.38 313.317 187.505 308.824 192.587 308.824C197.67 308.824 201.795 312.593 201.795 317.675V349.104C201.795 354.174 197.67 358.299 192.587 358.299ZM253.959 201.77C242.112 201.77 232.475 192.145 232.475 180.311C232.585 168.402 242.222 158.802 253.959 158.802C265.806 158.802 275.443 168.451 275.443 180.311C275.443 192.145 265.806 201.77 253.959 201.77ZM253.959 177.217C252.252 177.217 250.902 178.616 250.89 180.397C250.89 183.589 257.028 183.675 257.028 180.311C257.028 178.666 255.604 177.217 253.959 177.217Z" fill="white"/>
<path d="M217.117 355.23C212.034 355.23 207.909 351.105 207.909 346.022V314.594C208.277 293.858 221.401 281.569 243.008 281.569H310.408C338.46 281.569 355.205 265.781 355.205 239.337V207.909C355.205 202.826 359.33 198.701 364.413 198.701C369.496 198.701 373.621 202.826 373.621 207.909V238.601C373.621 276.18 348.809 299.984 310.408 299.984H243.008C228.534 299.984 226.447 307.449 226.324 314.765V346.022C226.324 351.105 222.199 355.23 217.117 355.23Z" fill="white"/>
<path d="M280.575 425.821C268.716 425.821 256.611 424.888 245.083 423.009C222.482 419.179 207.909 401.832 207.909 378.801V314.594C207.909 309.511 212.034 305.386 217.117 305.386C222.199 305.386 226.324 309.511 226.324 314.594V378.789C226.324 392.796 234.464 402.52 248.103 404.828C269.428 408.29 292.852 408.265 312.298 404.705C323.802 402.741 331.008 399.831 334.421 395.792C337.195 392.514 338.374 387.431 338.374 378.776V349.067H287.683C282.601 349.067 278.476 344.942 278.476 339.859C278.476 334.777 282.601 330.652 287.683 330.652H347.582C352.664 330.652 356.789 334.777 356.789 339.859V378.776C356.789 387.677 355.844 398.984 348.465 407.688C342.057 415.251 331.585 420.075 315.502 422.825C304.699 424.826 292.766 425.821 280.575 425.821Z" fill="white"/>
<path d="M372.884 349.091H347.594C342.511 349.091 338.386 344.966 338.386 339.884C338.386 334.801 342.511 330.676 347.594 330.676H372.884C390.636 330.676 399.07 324.39 402.974 308.259C408.904 283.472 408.904 269.071 402.962 244.039C397.585 221.696 389.543 217.116 379.145 217.116H373.62V238.601C373.62 243.683 369.495 248.176 364.413 248.176C359.33 248.176 355.205 244.408 355.205 239.325V207.909C355.205 202.826 359.33 198.701 364.413 198.701H379.145C407.688 198.701 416.626 222.125 420.874 239.755C427.442 267.451 427.442 285.129 420.874 312.568C415.018 336.802 398.874 349.091 372.884 349.091ZM303.041 398.198C291.194 398.198 281.557 388.549 281.557 376.689C281.557 364.855 291.194 355.23 303.041 355.23C314.888 355.23 324.526 364.855 324.526 376.689C324.403 388.598 314.766 398.198 303.041 398.198ZM303.041 373.645C301.347 373.645 299.972 375.007 299.972 376.689C299.972 380.029 306.074 380.09 306.111 376.603C306.111 375.007 304.723 373.645 303.041 373.645Z" fill="white"/>
</svg>
