<svg width="557" height="557" viewBox="0 0 557 557" fill="none" xmlns="http://www.w3.org/2000/svg">
<path d="M550.544 145.297C548.619 143.901 546.436 143.165 544.214 143.165C541.992 143.165 539.809 143.901 537.885 145.297L414.205 238.714H379.773V206.886C379.773 194.224 375.772 182.08 368.649 173.126C361.527 164.173 351.868 159.143 341.795 159.143H316.477V111.4C316.477 107.179 315.144 103.131 312.77 100.147C310.395 97.1624 307.176 95.4857 303.818 95.4857H291.159V79.5714C291.159 66.9092 287.158 54.7656 280.036 45.8121C272.914 36.8586 263.254 31.8286 253.182 31.8286H124.312C121.701 22.5418 116.868 14.4979 110.477 8.79962C104.086 3.10135 96.4489 0.0276831 88.6136 0H37.9773C27.9051 0 18.2454 5.03004 11.1233 13.9836C4.00117 22.9371 0 35.0807 0 47.7429C0 60.405 4.00117 72.5486 11.1233 81.5022C18.2454 90.4557 27.9051 95.4857 37.9773 95.4857H88.6136C96.4489 95.458 104.086 92.3844 110.477 86.6861C116.868 80.9878 121.701 72.9439 124.312 63.6571H253.182C256.539 63.6571 259.759 65.3338 262.133 68.3183C264.507 71.3028 265.841 75.3507 265.841 79.5714V95.4857H253.182C249.824 95.4857 246.605 97.1624 244.23 100.147C241.856 103.131 240.523 107.179 240.523 111.4V159.143H37.9773C27.9051 159.143 18.2454 164.173 11.1233 173.126C4.00117 182.08 0 194.224 0 206.886V493.343C0 506.005 4.00117 518.149 11.1233 527.102C18.2454 536.056 27.9051 541.086 37.9773 541.086H341.795C351.868 541.086 361.527 536.056 368.649 527.102C375.772 518.149 379.773 506.005 379.773 493.343V461.514H414.205L537.885 554.772C539.839 556.23 542.069 556.999 544.341 557C546.516 556.992 548.652 556.279 550.544 554.931C552.499 553.549 554.127 551.539 555.262 549.106C556.396 546.674 556.996 543.906 557 541.086V159.143C556.996 156.323 556.396 153.555 555.262 151.122C554.127 148.689 552.499 146.679 550.544 145.297V145.297ZM88.6136 63.6571H37.9773C34.6199 63.6571 31.4 61.9805 29.0259 58.996C26.6519 56.0114 25.3182 51.9636 25.3182 47.7429C25.3182 43.5221 26.6519 39.4743 29.0259 36.4898C31.4 33.5053 34.6199 31.8286 37.9773 31.8286H88.6136C91.971 31.8286 95.1909 33.5053 97.565 36.4898C99.939 39.4743 101.273 43.5221 101.273 47.7429C101.273 51.9636 99.939 56.0114 97.565 58.996C95.1909 61.9805 91.971 63.6571 88.6136 63.6571ZM265.841 127.314H291.159V159.143H265.841V127.314ZM37.9773 190.971H341.795C345.153 190.971 348.373 192.648 350.747 195.633C353.121 198.617 354.455 202.665 354.455 206.886V238.714H25.3182V206.886C25.3182 202.665 26.6519 198.617 29.0259 195.633C31.4 192.648 34.6199 190.971 37.9773 190.971ZM354.455 493.343C354.455 497.564 353.121 501.611 350.747 504.596C348.373 507.58 345.153 509.257 341.795 509.257H37.9773C34.6199 509.257 31.4 507.58 29.0259 504.596C26.6519 501.611 25.3182 497.564 25.3182 493.343V270.543H354.455V493.343ZM379.773 270.543H405.091V429.686H379.773V270.543ZM531.682 512.917L430.409 436.529V263.7L531.682 187.311V512.917ZM253.182 445.6H329.136V477.429H253.182V445.6Z" fill="#E8733A"/>
</svg>
